<?xml version="1.0" encoding="utf-8"?>
<!-- Generator: Adobe Illustrator 25.2.1, SVG Export Plug-In . SVG Version: 6.00 Build 0)  -->
<svg version="1.1" id="Layer_1" xmlns="http://www.w3.org/2000/svg" xmlns:xlink="http://www.w3.org/1999/xlink" x="0px" y="0px"
	 viewBox="0 0 50 50" style="enable-background:new 0 0 50 50;" xml:space="preserve">
<style type="text/css">
	.st0{fill:#FFFFFF;stroke:#000000;stroke-width:2;stroke-miterlimit:10;}
	.st1{fill:#FFFFFF;stroke:#000000;stroke-miterlimit:10;}
</style>
<line class="st0" x1="16.7" y1="10.81" x2="16.7" y2="39.19"/>
<path class="st1" d="M18.66,47.1h-3.93c-1.1,0-1.99-0.89-1.99-1.99v-3.93c0-1.1,0.89-1.99,1.99-1.99h3.93c1.1,0,1.99,0.89,1.99,1.99
	v3.93C20.65,46.21,19.76,47.1,18.66,47.1z"/>
<path class="st1" d="M18.66,10.81h-3.93c-1.1,0-1.99-0.89-1.99-1.99V4.89c0-1.1,0.89-1.99,1.99-1.99h3.93c1.1,0,1.99,0.89,1.99,1.99
	v3.93C20.65,9.92,19.76,10.81,18.66,10.81z"/>
<path class="st1" d="M35.27,18.73h-3.93c-1.1,0-1.99-0.89-1.99-1.99v-3.93c0-1.1,0.89-1.99,1.99-1.99h3.93
	c1.1,0,1.99,0.89,1.99,1.99v3.93C37.26,17.84,36.37,18.73,35.27,18.73z"/>
<path class="st0" d="M33.3,18.73l-0.91,4.08c-1.14,5.12-5.69,8.76-10.93,8.76h-0.78c-2.2,0-3.98,1.78-3.98,3.98v3.64"/>
</svg>
