<?xml version="1.0" encoding="utf-8"?>
<!-- Generator: Adobe Illustrator 25.2.1, SVG Export Plug-In . SVG Version: 6.00 Build 0)  -->
<svg version="1.1" id="Layer_1" xmlns="http://www.w3.org/2000/svg" xmlns:xlink="http://www.w3.org/1999/xlink" x="0px" y="0px"
	 viewBox="0 0 50 50" style="enable-background:new 0 0 50 50;" xml:space="preserve">
<style type="text/css">
	.st0{fill:#FFFFFF;stroke:#000000;stroke-width:2;stroke-miterlimit:10;}
</style>
<path class="st0" d="M25,17.84L25,17.84c-3.36,0-6.09-2.73-6.09-6.09v0c0-3.36,2.73-6.09,6.09-6.09h0c3.36,0,6.09,2.73,6.09,6.09v0
	C31.09,15.11,28.36,17.84,25,17.84z"/>
<path class="st0" d="M37.18,44.34L37.18,44.34c-3.36,0-6.09-2.73-6.09-6.09v0c0-3.36,2.73-6.09,6.09-6.09h0
	c3.36,0,6.09,2.73,6.09,6.09v0C43.27,41.61,40.54,44.34,37.18,44.34z"/>
<path class="st0" d="M12.82,44.34L12.82,44.34c-3.36,0-6.09-2.73-6.09-6.09v0c0-3.36,2.73-6.09,6.09-6.09h0
	c3.36,0,6.09,2.73,6.09,6.09v0C18.91,41.61,16.19,44.34,12.82,44.34z"/>
<line class="st0" x1="15.5" y1="32.79" x2="22.42" y2="17.26"/>
<line class="st0" x1="27.58" y1="17.26" x2="34.5" y2="32.79"/>
</svg>
