<?xml version="1.0" encoding="utf-8"?>
<!-- Generator: Adobe Illustrator 25.2.1, SVG Export Plug-In . SVG Version: 6.00 Build 0)  -->
<svg version="1.1" id="Layer_1" xmlns="http://www.w3.org/2000/svg" xmlns:xlink="http://www.w3.org/1999/xlink" x="0px" y="0px"
	 viewBox="0 0 50 50" style="enable-background:new 0 0 50 50;" xml:space="preserve">
<style type="text/css">
	.st0{fill:#FFFFFF;stroke:#000000;stroke-width:2;stroke-miterlimit:10;}
</style>
<line class="st0" x1="16.1" y1="12.72" x2="44.46" y2="12.72"/>
<line class="st0" x1="16.1" y1="25" x2="44.46" y2="25"/>
<line class="st0" x1="16.1" y1="37.8" x2="44.46" y2="37.8"/>
<path class="st0" d="M9.85,15.38H7.54c-1.1,0-2-0.89-2-2v-2.31c0-1.1,0.89-2,2-2h2.31c1.1,0,2,0.89,2,2v2.31
	C11.85,14.49,10.95,15.38,9.85,15.38z"/>
<path class="st0" d="M9.85,27.92H7.54c-1.1,0-2-0.89-2-2v-2.31c0-1.1,0.89-2,2-2h2.31c1.1,0,2,0.89,2,2v2.31
	C11.85,27.03,10.95,27.92,9.85,27.92z"/>
<path class="st0" d="M9.85,40.93H7.54c-1.1,0-2-0.89-2-2v-2.31c0-1.1,0.89-2,2-2h2.31c1.1,0,2,0.89,2,2v2.31
	C11.85,40.04,10.95,40.93,9.85,40.93z"/>
</svg>
