<?xml version="1.0" encoding="utf-8"?>
<!-- Generator: Adobe Illustrator 25.2.1, SVG Export Plug-In . SVG Version: 6.00 Build 0)  -->
<svg version="1.1" xmlns="http://www.w3.org/2000/svg" xmlns:xlink="http://www.w3.org/1999/xlink" x="0px" y="0px"
	 viewBox="0 0 50 50" style="enable-background:new 0 0 50 50;" xml:space="preserve">
<style type="text/css">
	.st0{fill:none;stroke:#000000;stroke-width:2;stroke-miterlimit:10;}
	.st1{stroke:#000000;stroke-width:2;stroke-miterlimit:10;}
	.st2{fill:none;stroke:#000000;stroke-miterlimit:10;}
</style>
<g id="Layer_1">
	<path class="st0" d="M7.41,21.06V9.18c0-1.49,1.21-2.69,2.69-2.69h12.12c0.78,0,1.52,0.34,2.03,0.92l5.18,5.91
		c0.43,0.49,0.67,1.13,0.67,1.78v17.18c0,1.5-1.22,2.71-2.72,2.69l-17.29-0.14c-1.48-0.01-2.68-1.22-2.68-2.7v-4.68"/>
	<path class="st1" d="M23.45,6.48v6.32c0,0.68,0.55,1.23,1.23,1.24l5.42,0.04"/>
	<path class="st2" d="M14.33,23.75H3.25c-0.18,0-0.32,0.14-0.32,0.32v0.22c0,0.18,0.14,0.32,0.32,0.32h11.08
		c0.18,0,0.32-0.14,0.32-0.32v-0.22C14.65,23.9,14.5,23.75,14.33,23.75z"/>
	<path class="st0" d="M16.07,24.11l-2.7-2.29c-0.06-0.05-0.16-0.01-0.16,0.08v4.58c0,0.08,0.1,0.13,0.16,0.08l2.7-2.29
		C16.12,24.22,16.12,24.15,16.07,24.11z"/>
</g>
<g id="Layer_2">
	<path class="st0" d="M42.4,35.71v5.1c0,1.5-1.22,2.71-2.72,2.7l-17.29-0.14c-1.48-0.01-2.68-1.22-2.68-2.7v-5.7l8.39,0
		c1.1,0,2-0.9,2-2V15.09l4.42-0.07c0.78,0,1.52,0.34,2.03,0.92l5.18,5.91c0.43,0.49,0.67,1.12,0.67,1.77v6.67"/>
	<path class="st1" d="M42.4,22.62l-5.42-0.04c-0.68,0-1.23-0.56-1.23-1.24v-6.32"/>
	<path class="st2" d="M46.75,32.58H35.67c-0.18,0-0.32,0.14-0.32,0.32v0.22c0,0.18,0.14,0.32,0.32,0.32h11.08
		c0.18,0,0.32-0.14,0.32-0.32V32.9C47.07,32.72,46.93,32.58,46.75,32.58z"/>
	<path class="st0" d="M33.93,33.08l2.7,2.29c0.06,0.05,0.16,0.01,0.16-0.08v-4.58c0-0.08-0.1-0.13-0.16-0.08l-2.7,2.29
		C33.88,32.97,33.88,33.05,33.93,33.08z"/>
</g>
</svg>
