<?xml version="1.0" encoding="utf-8"?>
<!-- Generator: Adobe Illustrator 25.2.1, SVG Export Plug-In . SVG Version: 6.00 Build 0)  -->
<svg version="1.1" id="Layer_1" xmlns="http://www.w3.org/2000/svg" xmlns:xlink="http://www.w3.org/1999/xlink" x="0px" y="0px"
	 viewBox="0 0 50 50" style="enable-background:new 0 0 50 50;" xml:space="preserve">
<style type="text/css">
	.st0{fill:#FFFFFF;stroke:#000000;stroke-miterlimit:10;}
</style>
<line class="st0" x1="10.8" y1="4.6" x2="10.8" y2="37.17"/>
<path class="st0" d="M12.92,45.4H8.68c-1.1,0-2-0.89-2-2v-4.24c0-1.1,0.89-2,2-2h4.24c1.1,0,2,0.89,2,2v4.24
	C14.92,44.51,14.03,45.4,12.92,45.4z"/>
<line class="st0" x1="25.13" y1="4.6" x2="25.13" y2="21.8"/>
<path class="st0" d="M27.12,29.21h-4.24c-1.1,0-2-0.89-2-2v-4.24c0-1.1,0.89-2,2-2h4.24c1.1,0,2,0.89,2,2v4.24
	C29.12,28.32,28.22,29.21,27.12,29.21z"/>
<line class="st0" x1="25.13" y1="29.21" x2="25.13" y2="45.4"/>
<line class="st0" x1="39.2" y1="13.02" x2="39.2" y2="45.4"/>
<path class="st0" d="M41.32,12.83h-4.24c-1.1,0-2-0.89-2-2V6.59c0-1.1,0.89-2,2-2h4.24c1.1,0,2,0.89,2,2v4.24
	C43.31,11.93,42.42,12.83,41.32,12.83z"/>
</svg>
